<?xml version="1.0" encoding="UTF-8"?> <svg xmlns="http://www.w3.org/2000/svg" width="315" height="458" viewBox="0 0 315 458" fill="none"><g clip-path="url(#clip0_291_538)"><g clip-path="url(#clip1_291_538)"><g clip-path="url(#clip2_291_538)"><path d="M0 37.2387H40.2341H80.4682H160.936H249.433L269.551 19.0906H293.766L315 37.2387V45.0754V76.0096V137.878V261.616V385.353V447.221V478.155V509.089H294.884H274.766H234.532H160.936H120.702L100.585 492.591H80.4682H0V372.979V343.075V321.421V283.269V253.366V193.559V155.407V133.754V73.9473V44.0442V37.2387Z" fill="white" fill-opacity="0.1"></path><path d="M80.4677 491.955H0.572266V372.98V343.076V321.421V283.269V253.366V193.56V155.407V133.754V73.9476V44.0446V37.8755H40.2336H80.4677H160.936H249.433H249.636L249.793 37.733L269.753 19.7273H293.57L314.427 37.5524V45.0758V76.01V137.878V261.616V385.353V447.221V478.155V508.453H294.883H274.765H234.531H160.936H120.891L100.925 492.08L100.773 491.955H100.585H80.4677Z" stroke="white" stroke-opacity="0.2" stroke-width="1.27272"></path><path d="M0 0H299.09V8.27271V14.8909L275.975 33.0908H267.014H264.692H260.048H222.899H148.599H0V0Z" fill="white" fill-opacity="0.3"></path><path d="M0.634766 32.4546V0.636475H298.452V8.27282V14.5821L275.753 32.4546H267.012H264.691H260.046H222.897H148.598H0.634766Z" stroke="white" stroke-opacity="0.2" stroke-width="1.27272"></path><path d="M9.93431 198.249L0 181.438L6.65763e-06 333.504L9.93431 315.922V198.249Z" fill="white"></path><path d="M304 198.249L313.935 181.438V333.504L304 315.922V198.249Z" fill="white"></path><g opacity="0.2"><path d="M25.4555 358.908H33.0918V360.87H25.4555V358.908Z" fill="white"></path><path d="M25.4555 443.257H33.0918V445.218H25.4555V443.257Z" fill="white"></path><path d="M25.4555 362.831H33.0918V363.812H25.4555V362.831Z" fill="white"></path><path d="M25.4555 447.18H33.0918V448.161H25.4555V447.18Z" fill="white"></path><path d="M25.4555 365.773H33.0918V368.716H25.4555V365.773Z" fill="white"></path><path d="M25.4555 450.123H33.0918V453.065H25.4555V450.123Z" fill="white"></path><path d="M25.4555 372.64H33.0918V373.62H25.4555V372.64Z" fill="white"></path><path d="M25.4555 456.988H33.0918V457.969H25.4555V456.988Z" fill="white"></path><path d="M25.4555 375.583H33.0918V379.507H25.4555V375.583Z" fill="white"></path><path d="M25.4555 384.408H33.0918V386.37H25.4555V384.408Z" fill="white"></path><path d="M25.4555 390.293H33.0918V391.274H25.4555V390.293Z" fill="white"></path><path d="M25.4555 397.161H33.0918V398.142H25.4555V397.161Z" fill="white"></path><path d="M25.4555 399.122H33.0918V400.103H25.4555V399.122Z" fill="white"></path><path d="M25.4555 402.062H33.0918V404.024H25.4555V402.062Z" fill="white"></path><path d="M25.4555 408.929H33.0918V412.852H25.4555V408.929Z" fill="white"></path><path d="M25.4555 414.813H33.0918V415.794H25.4555V414.813Z" fill="white"></path><path d="M25.4555 428.545H33.0918V431.488H25.4555V428.545Z" fill="white"></path><path d="M25.4555 417.756H33.0918V418.737H25.4555V417.756Z" fill="white"></path><path d="M25.4555 419.718H33.0918V420.699H25.4555V419.718Z" fill="white"></path><path d="M25.4555 425.602H33.0918V426.583H25.4555V425.602Z" fill="white"></path><path d="M25.4555 433.45H33.0918V434.431H25.4555V433.45Z" fill="white"></path><path d="M25.4555 436.39H33.0918V437.371H25.4555V436.39Z" fill="white"></path><path d="M25.4555 439.333H33.0918V441.294H25.4555V439.333Z" fill="white"></path><path d="M25.4555 393.235H33.0918V394.216H25.4555V393.235Z" fill="white"></path><path d="M25.4555 380.486H33.0918V381.467H25.4555V380.486Z" fill="white"></path></g></g></g></g><defs><clipPath id="clip0_291_538"><rect width="315" height="458" fill="white"></rect></clipPath><clipPath id="clip1_291_538"><rect width="349.999" height="509.09" fill="white"></rect></clipPath><clipPath id="clip2_291_538"><rect width="349.999" height="509.09" fill="white"></rect></clipPath></defs></svg> 