<?xml version="1.0" encoding="UTF-8"?> <svg xmlns="http://www.w3.org/2000/svg" width="255" height="360" viewBox="0 0 255 360" fill="none"><path d="M240.705 -0.430176H14.075C6.3016 -0.430176 0 5.87143 0 13.6448V345.829C0 353.603 6.30159 359.904 14.075 359.904H240.705C248.479 359.904 254.78 353.603 254.78 345.829V13.6448C254.78 5.87141 248.479 -0.430176 240.705 -0.430176Z" fill="#EEE4D8"></path><path d="M239.836 345.627H15.2617V13.6147H239.836V345.627ZM15.622 345.267H239.475V13.9751H15.622V345.267Z" fill="#848BDC"></path><path d="M225.764 348.142H29.3314L12.252 331.063V28.1791L29.3314 11.0996H225.764L242.843 28.1791V331.063L225.764 348.142ZM29.4792 347.782H225.616L242.483 330.915V28.3196L225.616 11.4527H29.4792L12.6123 28.3196V330.908L29.4792 347.782Z" fill="#848BDC"></path><path fill-rule="evenodd" clip-rule="evenodd" d="M18.5734 14.9893C18.5656 16.5987 17.5048 17.9021 16.1931 17.9156C17.5096 17.9292 18.5735 19.2422 18.5735 20.86C18.5735 20.9033 18.5727 20.9464 18.5712 20.9893H18.5765C18.575 20.9466 18.5742 20.9036 18.5742 20.8605C18.5742 19.2343 19.6492 17.916 20.9752 17.916C20.9835 17.916 20.9917 17.9161 21 17.9162V17.9156C20.9917 17.9157 20.9835 17.9157 20.9752 17.9157C19.6541 17.9157 18.5821 16.6072 18.5743 14.9893H18.5734ZM16 17.923C16.0502 17.9186 16.1008 17.9162 16.1518 17.9156C16.1008 17.9151 16.0502 17.9126 16 17.9083V17.923Z" fill="#848BDC"></path><path fill-rule="evenodd" clip-rule="evenodd" d="M18.5734 338.989C18.5656 340.599 17.5048 341.902 16.1931 341.916C17.5096 341.929 18.5735 343.242 18.5735 344.86C18.5735 344.903 18.5727 344.946 18.5712 344.989H18.5765C18.575 344.947 18.5742 344.904 18.5742 344.86C18.5742 343.234 19.6492 341.916 20.9752 341.916C20.9835 341.916 20.9917 341.916 21 341.916V341.916C20.9917 341.916 20.9835 341.916 20.9752 341.916C19.6541 341.916 18.5821 340.607 18.5743 338.989H18.5734ZM16 341.923C16.0502 341.919 16.1008 341.916 16.1518 341.916C16.1008 341.915 16.0502 341.913 16 341.908V341.923Z" fill="#848BDC"></path><path fill-rule="evenodd" clip-rule="evenodd" d="M236.573 14.9893C236.566 16.5987 235.505 17.9021 234.193 17.9156C235.51 17.9292 236.573 19.2422 236.573 20.86C236.573 20.9033 236.573 20.9464 236.571 20.9893H236.576C236.575 20.9466 236.574 20.9036 236.574 20.8605C236.574 19.2343 237.649 17.916 238.975 17.916C238.983 17.916 238.992 17.9161 239 17.9162V17.9156C238.992 17.9157 238.983 17.9157 238.975 17.9157C237.654 17.9157 236.582 16.6072 236.574 14.9893H236.573ZM234 17.923C234.05 17.9186 234.101 17.9162 234.152 17.9156C234.101 17.9151 234.05 17.9126 234 17.9083V17.923Z" fill="#848BDC"></path><path fill-rule="evenodd" clip-rule="evenodd" d="M236.573 338.989C236.566 340.599 235.505 341.902 234.193 341.916C235.51 341.929 236.573 343.242 236.573 344.86C236.573 344.903 236.573 344.946 236.571 344.989H236.576C236.575 344.947 236.574 344.904 236.574 344.86C236.574 343.234 237.649 341.916 238.975 341.916C238.983 341.916 238.992 341.916 239 341.916V341.916C238.992 341.916 238.983 341.916 238.975 341.916C237.654 341.916 236.582 340.607 236.574 338.989H236.573ZM234 341.923C234.05 341.919 234.101 341.916 234.152 341.916C234.101 341.915 234.05 341.913 234 341.908V341.923Z" fill="#848BDC"></path></svg> 