<?xml version="1.0" encoding="UTF-8"?> <svg xmlns="http://www.w3.org/2000/svg" width="1160" height="182" viewBox="0 0 1160 182" fill="none"><g clip-path="url(#clip0_305_723)"><g clip-path="url(#clip1_305_723)"><g clip-path="url(#clip2_305_723)"><path d="M33.3471 8.55328C35.4719 6.59021 38.2584 5.5 41.1511 5.5H68.75H137.5H157.5H1118.95C1121.86 5.5 1124.66 6.60213 1126.79 8.58436L1150.84 30.9827C1153.17 33.1581 1154.5 36.2064 1154.5 39.3983V63.75V104.5V113.25V142.704C1154.5 145.905 1153.17 148.961 1150.82 151.137L1126.77 173.433C1124.64 175.405 1121.85 176.5 1118.95 176.5H206.25H137.5H68.75H41.1703C38.2698 176.5 35.4764 175.404 33.3498 173.431L9.1795 151.013C6.83334 148.837 5.5 145.781 5.5 142.581V104.5V63.75V39.3136C5.5 36.1057 6.83983 33.0437 9.19597 30.8668L33.3471 8.55328Z" fill="#F8F3ED" stroke="#EEE4D8" stroke-width="11"></path></g></g></g><defs><clipPath id="clip0_305_723"><rect width="1160" height="182" fill="white"></rect></clipPath><clipPath id="clip1_305_723"><rect width="1160" height="182" fill="white"></rect></clipPath><clipPath id="clip2_305_723"><rect width="1160" height="182" fill="white"></rect></clipPath></defs></svg> 