<?xml version="1.0" encoding="UTF-8"?> <svg xmlns="http://www.w3.org/2000/svg" width="81" height="122" viewBox="0 0 81 122" fill="none"><circle cx="40.4637" cy="76.1661" r="39.5645" stroke="#858CDD" stroke-width="1.79839"></circle><circle cx="40.4637" cy="76.1661" r="39.5645" stroke="#858CDD" stroke-width="1.79839"></circle><circle cx="40.4637" cy="76.1661" r="40.1639" stroke="white" stroke-opacity="0.24" stroke-width="0.599462"></circle><path d="M36.2847 116.263L40.2898 111.834L44.1863 116.263L40.2898 121.425L36.2847 116.263Z" fill="#848BDC"></path><path d="M36.2847 35.8716L40.2898 31.4426L44.1863 35.8716L40.2898 41.034L36.2847 35.8716Z" fill="#848BDC"></path><path d="M59.4346 111.744L60.2545 105.534L66.3323 106.456L65.8933 113.297L59.4346 111.744Z" fill="#848BDC"></path><path d="M64.6087 111.918L60.3463 110.894L60.8893 106.78L64.8994 107.388L64.6087 111.918Z" stroke="#A2A8E5" stroke-width="0.599462"></path><path d="M15.0773 106.368L21.3091 105.735L21.8132 111.862L15.0545 113.011L15.0773 106.368Z" fill="#848BDC"></path><path d="M16.3823 111.438L16.3969 107.175L20.4111 106.767L20.7345 110.698L16.3823 111.438Z" stroke="#A2A8E5" stroke-width="0.599462"></path><line x1="40.1346" y1="52.8499" x2="40.1346" y2="39.6617" stroke="#848BDC" stroke-width="1.24643"></line><path d="M39.8848 7.99994L36.2866 14.2321L43.4829 14.2321L39.8848 7.99994ZM40.508 35.4214L40.508 13.6089L39.2615 13.6089L39.2616 35.4214L40.508 35.4214Z" fill="#848BDC"></path><path fill-rule="evenodd" clip-rule="evenodd" d="M55.9551 22L39.9775 -6.98402e-07L23.9999 22L39.9775 14.0566L55.9551 22Z" fill="#848BDC"></path><path d="M62.9818 89.0139C62.1636 85.8045 60.7045 82.8699 58.7564 80.3451C58.988 79.1534 59.1122 77.9233 59.1122 76.6635C59.1122 68.1286 53.5463 60.8867 45.9003 58.4718C44.7884 55.5743 43.1153 52.9013 40.9301 50.6049L40.3197 49.9644L39.7104 50.6049C37.5252 52.9013 35.8521 55.5743 34.7403 58.4718C27.0942 60.8867 21.5278 68.1286 21.5278 76.664C21.5278 77.9233 21.6526 79.1539 21.8835 80.3456C19.9355 82.8699 18.4764 85.8045 17.6582 89.0145L17.4453 89.8473L18.268 90.0602C20.1596 90.5502 22.1156 90.7992 24.0829 90.7992C25.2303 90.7992 26.3624 90.7133 27.4765 90.5508C30.8391 93.7487 35.3563 95.7132 40.3197 95.7132C45.2836 95.7132 49.8004 93.7487 53.1635 90.5508C54.277 90.7128 55.4097 90.7992 56.5565 90.7992C58.5232 90.7992 60.4798 90.5502 62.3714 90.0602L63.1941 89.8473L62.9818 89.0139ZM57.4176 76.664C57.4176 77.3343 57.3758 77.9943 57.3024 78.6451C54.5113 75.6601 50.9619 73.4197 46.9505 72.2212L46.9579 72.1925L46.9313 72.1857C47.2938 70.512 47.4881 68.7983 47.4881 67.0731C47.4881 64.8362 47.1781 62.6434 46.5874 60.5433C52.9224 63.0835 57.4176 69.3495 57.4176 76.664ZM41.4965 82.9243C41.5851 82.8241 41.667 82.7188 41.754 82.6175C41.8725 82.4789 41.9894 82.3399 42.1046 82.199C42.2966 81.9644 42.4818 81.7257 42.6642 81.4841C42.7703 81.3439 42.8771 81.2048 42.9804 81.0623C43.1729 80.795 43.357 80.5225 43.5383 80.2472C43.619 80.1258 43.7026 80.0068 43.7805 79.8843C44.034 79.4836 44.2785 79.0767 44.5078 78.6617C44.5197 78.6394 44.5304 78.617 44.5428 78.5947C44.7585 78.202 44.9624 77.8031 45.1555 77.3996C45.2227 77.2587 45.2836 77.1151 45.348 76.9731C45.4796 76.6835 45.6083 76.3922 45.7286 76.0974C45.7969 75.9285 45.8607 75.7585 45.9257 75.5885C46.0307 75.3126 46.1312 75.0356 46.2255 74.7557C46.2859 74.5771 46.3446 74.3968 46.4011 74.2159C46.4372 74.0992 46.4802 73.9847 46.5146 73.8673C50.6406 75.1077 54.2329 77.549 56.9258 80.7887C56.1923 83.8218 54.67 86.5423 52.5915 88.7163C48.4282 87.943 44.5976 85.9585 41.4965 82.9243ZM28.0491 88.7151C25.9706 86.5412 24.4482 83.8206 23.7147 80.7875C26.4076 77.5478 30.0005 75.1066 34.1259 73.8662C34.161 73.9853 34.2044 74.102 34.2411 74.2211C34.2965 74.3985 34.3535 74.5742 34.4128 74.75C34.5088 75.0327 34.611 75.3138 34.7166 75.5931C34.7804 75.7608 34.8436 75.9279 34.9108 76.0939C35.0317 76.3916 35.1615 76.6846 35.2942 76.9771C35.358 77.1174 35.4179 77.2588 35.4845 77.3973C35.6782 77.8031 35.8826 78.2038 36.0994 78.5981C36.1107 78.6187 36.1203 78.6399 36.1316 78.6605C36.3614 79.0755 36.6059 79.4825 36.8595 79.8832C36.938 80.0068 37.0221 80.1259 37.1023 80.2478C37.283 80.5219 37.467 80.7938 37.659 81.0606C37.7629 81.2048 37.8713 81.3456 37.9781 81.487C38.1582 81.7257 38.3423 81.9621 38.5314 82.1939C38.6494 82.3381 38.7692 82.4807 38.8906 82.6226C38.9758 82.7222 39.0566 82.8252 39.1435 82.9237C36.0424 85.9585 32.2118 87.943 28.0491 88.7151ZM44.6219 74.2022C44.5315 74.4695 44.4355 74.7351 44.3345 74.999C44.2774 75.1489 44.2209 75.2977 44.1605 75.4466C44.0465 75.7265 43.9239 76.0035 43.7986 76.2788C43.7421 76.4025 43.6896 76.5272 43.6309 76.6492C43.4429 77.0424 43.2452 77.431 43.0346 77.8128C43.0244 77.8311 43.0126 77.8483 43.0024 77.8678C42.8008 78.2295 42.588 78.585 42.3666 78.9353C42.2898 79.0561 42.2085 79.1734 42.1294 79.293C41.9674 79.5386 41.8025 79.7824 41.6303 80.0217C41.5337 80.1556 41.4338 80.2878 41.335 80.4195C41.169 80.6399 40.999 80.8574 40.8251 81.0714C40.7184 81.2025 40.6105 81.3336 40.5004 81.463C40.4417 81.5316 40.379 81.5975 40.3191 81.6661C40.2593 81.5975 40.196 81.5311 40.1373 81.4618C40.0278 81.3336 39.9205 81.2031 39.8143 81.072C39.6393 80.8574 39.4693 80.6399 39.3028 80.4189C39.2034 80.2873 39.104 80.1556 39.0086 80.0217C38.8363 79.7824 38.6709 79.538 38.5088 79.2925C38.4298 79.1734 38.3485 79.0561 38.2717 78.9353C38.0503 78.585 37.8375 78.2295 37.6364 77.8672C37.6257 77.8489 37.6144 77.8311 37.6037 77.8123C37.3931 77.431 37.1954 77.0424 37.0074 76.6492C36.9487 76.5261 36.8956 76.3996 36.8386 76.276C36.7138 76.0018 36.5924 75.727 36.4795 75.4489C36.4185 75.2983 36.3609 75.1466 36.3033 74.9949C36.2033 74.7339 36.1085 74.4712 36.0187 74.2068C35.9656 74.0494 35.9131 73.892 35.864 73.7334C35.8346 73.6401 35.8098 73.5445 35.7815 73.4506C35.8747 73.4306 35.9667 73.4071 36.0599 73.3883C36.2028 73.3596 36.3456 73.3333 36.4891 73.3075C36.7793 73.2555 37.0707 73.2091 37.3631 73.1696C37.4925 73.1519 37.6212 73.1335 37.7516 73.1175C38.0831 73.0786 38.4157 73.0477 38.7488 73.0236C38.8397 73.0173 38.9301 73.0082 39.0204 73.0025C39.8849 72.9509 40.7528 72.9509 41.6173 73.0025C41.7122 73.0082 41.8065 73.0179 41.9013 73.0248C42.23 73.0488 42.558 73.0786 42.8844 73.1175C43.0177 73.133 43.1509 73.1524 43.2836 73.1702C43.5727 73.2097 43.8601 73.2555 44.147 73.307C44.2921 73.3333 44.4372 73.3596 44.5818 73.3888C44.6744 73.4071 44.7653 73.4306 44.8573 73.4506C44.8291 73.5462 44.8042 73.643 44.7749 73.738C44.7258 73.8931 44.6744 74.0476 44.6219 74.2022ZM45.7941 67.0737C45.7941 68.6603 45.627 70.2395 45.2966 71.7793C45.1775 71.7529 45.0566 71.7346 44.9369 71.7106C44.7777 71.678 44.6179 71.6482 44.4575 71.619C44.1504 71.5635 43.8426 71.5154 43.5338 71.473C43.3858 71.4524 43.239 71.4307 43.0905 71.4135C42.7444 71.3723 42.3965 71.3408 42.0487 71.3151C41.938 71.307 41.8274 71.295 41.7161 71.2882C40.7867 71.2326 39.8544 71.2326 38.925 71.2882C38.8098 71.295 38.6952 71.307 38.58 71.3162C38.2372 71.3414 37.8951 71.3723 37.5546 71.4129C37.401 71.4307 37.248 71.453 37.0949 71.4742C36.7928 71.5165 36.4924 71.5635 36.192 71.6173C36.0249 71.6476 35.8583 71.6791 35.6923 71.7129C35.576 71.7363 35.4585 71.7541 35.3428 71.7793C35.0125 70.2413 34.8453 68.6626 34.8453 67.0737C34.8453 64.5929 35.2553 62.1706 36.0334 59.8839C37.4032 59.5238 38.8397 59.3321 40.3191 59.3321C41.7991 59.3321 43.2351 59.5238 44.6055 59.8839C45.3847 62.17 45.7941 64.5929 45.7941 67.0737ZM40.3197 52.464C41.776 54.1239 42.9555 55.9756 43.846 57.9561C42.7031 57.7351 41.5253 57.6149 40.3197 57.6149C39.1142 57.6149 37.9368 57.7351 36.794 57.9561C37.6839 55.9756 38.864 54.1239 40.3197 52.464ZM23.2218 76.664C23.2218 69.35 27.7176 63.0835 34.0531 60.5438C33.4619 62.6439 33.1519 64.8368 33.1519 67.0737C33.1519 68.8006 33.3467 70.5143 33.7087 72.1862L33.6827 72.1931L33.69 72.2217C29.6787 73.4203 26.1287 75.6606 23.337 78.6462C23.2636 77.9943 23.2218 77.3343 23.2218 76.664ZM19.5317 88.5966C20.1879 86.3901 21.1726 84.3335 22.4284 82.4829C23.1947 84.899 24.4251 87.1038 26.0129 88.9933C25.3748 89.05 24.7317 89.0815 24.0835 89.0815C22.5487 89.082 21.0213 88.9195 19.5317 88.5966ZM40.3197 93.996C36.2564 93.996 32.5206 92.549 29.5838 90.1398C33.5923 89.1679 37.2705 87.1319 40.3045 84.1663L40.3197 84.1818L40.335 84.1663C43.3689 87.1313 47.0476 89.1673 51.055 90.1398C48.1188 92.549 44.383 93.996 40.3197 93.996ZM56.5565 89.082C55.9083 89.082 55.2651 89.05 54.6276 88.9939C56.2149 87.1044 57.4447 84.8996 58.2115 82.4841C59.4674 84.3335 60.4521 86.3901 61.1083 88.5972C59.6181 88.9195 58.0913 89.082 56.5565 89.082Z" fill="#6569B4"></path></svg> 