<?xml version="1.0" encoding="UTF-8"?> <svg xmlns="http://www.w3.org/2000/svg" width="740" height="428" viewBox="0 0 740 428" fill="none"><rect x="2.35181" y="2.90356" width="735.298" height="421.987" stroke="white" stroke-width="4.62451"></rect><rect x="19.325" y="19.8768" width="701.351" height="388.04" stroke="#EEE4D8" stroke-width="29.3219"></rect><g clip-path="url(#clip0_349_278)"><path d="M182.129 484.431C308.274 484.431 409.886 367.324 409.886 223.724C409.886 80.1232 308.274 -36.9831 182.129 -36.9831C55.9833 -36.9831 -45.6286 80.1232 -45.6286 223.724C-45.6286 367.324 55.9833 484.431 182.129 484.431Z" fill="#F8F3ED" stroke="#D5C9BB" stroke-width="5.78064"></path><mask id="path-6-inside-1_349_278" fill="white"><path fill-rule="evenodd" clip-rule="evenodd" d="M386.068 293C385.951 316.295 370.517 335.134 351.494 335.134C350.656 335.134 349.824 335.098 349 335.026V335.243C349.824 335.171 350.656 335.134 351.494 335.134C370.531 335.134 385.974 354.001 386.068 377.32C386.163 354.001 401.606 335.134 420.642 335.134C420.761 335.134 420.881 335.135 421 335.137V335.132C420.881 335.134 420.761 335.134 420.642 335.134C401.619 335.134 386.185 316.295 386.068 293H386.068ZM386.101 379.4C386.081 378.852 386.07 378.302 386.068 377.749C386.066 378.302 386.055 378.852 386.036 379.4H386.101Z"></path></mask><path fill-rule="evenodd" clip-rule="evenodd" d="M386.068 293C385.951 316.295 370.517 335.134 351.494 335.134C350.656 335.134 349.824 335.098 349 335.026V335.243C349.824 335.171 350.656 335.134 351.494 335.134C370.531 335.134 385.974 354.001 386.068 377.32C386.163 354.001 401.606 335.134 420.642 335.134C420.761 335.134 420.881 335.135 421 335.137V335.132C420.881 335.134 420.761 335.134 420.642 335.134C401.619 335.134 386.185 316.295 386.068 293H386.068ZM386.101 379.4C386.081 378.852 386.07 378.302 386.068 377.749C386.066 378.302 386.055 378.852 386.036 379.4H386.101Z" fill="#F8F3ED"></path><path d="M386.068 293V290.413H383.494L383.481 292.987L386.068 293ZM349 335.026L349.225 332.448L346.413 332.202V335.026H349ZM349 335.243H346.413V338.066L349.225 337.82L349 335.243ZM386.068 377.32L383.481 377.33H388.655L386.068 377.32ZM421 335.137L420.968 337.724L423.587 337.756V335.137H421ZM421 335.132H423.587V332.512L420.968 332.545L421 335.132ZM386.068 293L388.656 292.987L388.643 290.413H386.068V293ZM386.068 377.749L388.655 377.739H383.481L386.068 377.749ZM386.101 379.4V381.987H388.781L388.686 379.309L386.101 379.4ZM386.036 379.4L383.45 379.309L383.356 381.987H386.036V379.4ZM351.494 337.722C372.406 337.722 388.534 317.216 388.655 293.013L383.481 292.987C383.369 315.373 368.627 332.547 351.494 332.547V337.722ZM348.775 337.603C349.673 337.682 350.58 337.722 351.494 337.722V332.547C350.731 332.547 349.974 332.514 349.225 332.448L348.775 337.603ZM351.587 335.243V335.026H346.413V335.243H351.587ZM351.494 332.547C350.58 332.547 349.673 332.587 348.775 332.666L349.225 337.82C349.974 337.755 350.731 337.722 351.494 337.722V332.547ZM388.655 377.309C388.557 353.082 372.422 332.547 351.494 332.547V337.722C368.64 337.722 383.39 354.921 383.481 377.33L388.655 377.309ZM420.642 332.547C399.715 332.547 383.579 353.082 383.481 377.309L388.655 377.33C388.746 354.921 403.497 337.722 420.642 337.722V332.547ZM421.032 332.55C420.902 332.548 420.772 332.547 420.642 332.547V337.722C420.751 337.722 420.859 337.722 420.968 337.724L421.032 332.55ZM418.413 335.132V335.137H423.587V335.132H418.413ZM420.642 337.722C420.772 337.722 420.902 337.721 421.032 337.719L420.968 332.545C420.859 332.546 420.751 332.547 420.642 332.547V337.722ZM383.481 293.013C383.602 317.216 399.73 337.722 420.642 337.722V332.547C403.509 332.547 388.768 315.373 388.656 292.987L383.481 293.013ZM386.068 295.587H386.068V290.413H386.068V295.587ZM383.481 377.76C383.483 378.339 383.495 378.917 383.515 379.491L388.686 379.309C388.668 378.788 388.658 378.265 388.655 377.739L383.481 377.76ZM388.621 379.491C388.642 378.917 388.653 378.339 388.655 377.76L383.481 377.739C383.479 378.265 383.469 378.788 383.45 379.309L388.621 379.491ZM386.101 376.813H386.036V381.987H386.101V376.813Z" fill="#D2C7BC" mask="url(#path-6-inside-1_349_278)"></path></g><rect x="32.5475" y="34.2555" width="674.904" height="358.125" stroke="white" stroke-width="2.58723"></rect><defs><clipPath id="clip0_349_278"><rect x="31.2539" y="32.9619" width="677.491" height="360.712" fill="white"></rect></clipPath></defs></svg> 