<?xml version="1.0" encoding="UTF-8"?> <svg xmlns="http://www.w3.org/2000/svg" width="919" height="919" viewBox="0 0 919 919" fill="none"><g filter="url(#filter0_f_349_575)"><circle cx="459.306" cy="459.522" r="208.785" fill="#888EF2"></circle></g><circle cx="464.87" cy="475.666" r="221.828" stroke="#858CDD" stroke-width="10.0831"></circle><circle cx="464.87" cy="475.666" r="221.828" stroke="#858CDD" stroke-width="10.0831"></circle><circle cx="464.87" cy="475.666" r="225.189" stroke="white" stroke-opacity="0.24" stroke-width="3.36103"></circle><path d="M442.413 700.48L464.869 675.648L486.715 700.48L464.869 729.424L442.413 700.48Z" fill="#848BDC"></path><path d="M464.903 825.728L457.304 815.084L464.889 805.97L472.799 815.2L464.903 825.728Z" stroke="#848BDC" stroke-width="3.36103"></path><path d="M571.25 675.148L575.846 640.329L609.923 645.494L607.462 683.854L571.25 675.148Z" fill="#848BDC"></path><path d="M600.25 676.122L576.352 670.376L579.396 647.315L601.88 650.723L600.25 676.122Z" stroke="#A2A8E5" stroke-width="3.36103"></path><path d="M322.536 645.004L357.476 641.454L360.302 675.804L322.408 682.248L322.536 645.004Z" fill="#848BDC"></path><path d="M329.83 673.431L329.912 649.529L352.419 647.243L354.232 669.281L329.83 673.431Z" stroke="#A2A8E5" stroke-width="3.36103"></path><line x1="464.87" y1="605.065" x2="464.87" y2="679.008" stroke="#848BDC" stroke-width="3.36103"></line><path d="M464.869 806.347L474.572 796.645L464.869 786.942L455.167 796.645L464.869 806.347ZM463.189 722.702L463.189 796.645L466.55 796.645L466.55 722.702L463.189 722.702Z" fill="#848BDC"></path><g opacity="0.42"><circle cx="464.062" cy="484.962" r="120.497" stroke="url(#paint0_radial_349_575)" stroke-width="12.6839" stroke-dasharray="9.51 9.51"></circle><circle cx="464.064" cy="484.96" r="149.036" stroke="url(#paint1_radial_349_575)" stroke-width="6.34195" stroke-dasharray="3.17 3.17"></circle><circle cx="464.069" cy="484.959" r="101.471" fill="url(#paint2_radial_349_575)"></circle><circle cx="464.064" cy="484.961" r="76.1034" fill="url(#paint3_radial_349_575)"></circle></g><circle cx="303.375" cy="315.288" r="45.4118" fill="#A2A8E5"></circle><path d="M270.936 314.7C270.936 305.162 275.001 296.573 281.494 290.571C287.35 285.159 295.181 281.852 303.784 281.852" stroke="url(#paint4_linear_349_575)" stroke-width="1.17316"></path><path d="M336.632 314.7C336.632 296.558 321.925 281.852 303.783 281.852" stroke="url(#paint5_linear_349_575)" stroke-width="1.17316" stroke-linejoin="round" stroke-dasharray="1.17 1.17"></path><path d="M336.633 315.873C336.633 325.412 332.567 334.001 326.074 340.002C320.218 345.414 312.387 348.722 303.784 348.722" stroke="url(#paint6_linear_349_575)" stroke-width="1.17316"></path><path d="M270.937 315.873C270.937 334.015 285.643 348.722 303.785 348.722" stroke="url(#paint7_linear_349_575)" stroke-width="1.17316" stroke-dasharray="1.17 1.17"></path><circle cx="303.784" cy="314.702" r="22.2901" stroke="url(#paint8_radial_349_575)" stroke-width="2.34632" stroke-dasharray="1.76 1.76"></circle><circle cx="303.785" cy="314.701" r="27.5693" stroke="url(#paint9_radial_349_575)" stroke-width="1.17316" stroke-dasharray="0.59 0.59"></circle><circle cx="303.786" cy="314.7" r="18.7706" fill="url(#paint10_radial_349_575)"></circle><circle cx="303.785" cy="314.701" r="14.0779" fill="url(#paint11_radial_349_575)"></circle><circle cx="464.062" cy="251.412" r="45.4118" fill="#A2A8E5"></circle><path fill-rule="evenodd" clip-rule="evenodd" d="M476.538 223.204V230.119L482.526 226.661L496.499 232.423L494.503 247.405L488.514 250.863L494.503 254.32L496.499 269.302L482.526 275.065L476.538 271.607V278.522L464.561 287.742L452.584 278.522V271.607L446.596 275.065L432.623 269.302L434.619 254.32L440.608 250.863L434.619 247.405L432.623 232.423L446.596 226.661L452.584 230.119V223.204L464.561 213.984L476.538 223.204ZM453.582 223.695L464.561 215.244L475.54 223.695V230.695L466.557 235.881L464.748 249.46L464.561 249.604L464.374 249.46L462.565 235.881L453.582 230.695V223.695ZM441.606 251.439L435.544 254.939L433.714 268.673L446.522 273.955L452.584 270.455V260.083L463.439 251.727L463.47 251.493L463.252 251.403L450.588 256.625L441.606 251.439ZM461.943 250.863L450.662 255.515L442.604 250.863L450.662 246.211L461.943 250.863ZM463.252 250.323L450.588 245.101L441.606 250.287L435.544 246.787L433.714 233.053L446.522 227.771L452.584 231.271V241.643L463.439 250L463.47 250.233L463.252 250.323ZM463.252 253.13L453.582 260.574V269.879L461.64 265.226L463.252 253.13ZM453.582 271.031L462.565 265.845L464.374 252.267L464.561 252.123L464.748 252.267L466.557 265.845L475.54 271.031V278.031L464.561 286.482L453.582 278.031V271.031ZM467.482 236.5L475.54 231.847V241.152L465.87 248.596L467.482 236.5ZM476.538 241.643L465.683 250L465.652 250.233L465.87 250.323L478.534 245.101L487.516 250.287L493.578 246.787L495.408 233.053L482.6 227.771L476.538 231.271V241.643ZM478.534 256.625L465.87 251.403L465.652 251.493L465.683 251.727L476.538 260.083V270.455L482.6 273.955L495.408 268.673L493.578 254.939L487.516 251.439L478.534 256.625ZM478.46 255.515L486.518 250.863L478.46 246.211L467.179 250.863L478.46 255.515ZM465.87 253.13L475.54 260.574V269.879L467.482 265.226L465.87 253.13ZM461.64 236.5L463.252 248.596L453.582 241.152V231.847L461.64 236.5Z" fill="url(#paint12_radial_349_575)"></path><circle cx="632.734" cy="315.288" r="45.4118" fill="#A2A8E5"></circle><g filter="url(#filter1_ii_349_575)"><circle cx="633.233" cy="302.013" r="19.1628" fill="url(#paint13_linear_349_575)"></circle></g><g filter="url(#filter2_ii_349_575)"><circle cx="633.233" cy="327.563" r="19.1628" fill="url(#paint14_linear_349_575)"></circle></g><g filter="url(#filter3_ii_349_575)"><circle cx="620.46" cy="314.788" r="19.1628" transform="rotate(-90 620.46 314.788)" fill="url(#paint15_linear_349_575)"></circle></g><g filter="url(#filter4_ii_349_575)"><circle cx="646.01" cy="314.788" r="19.1628" transform="rotate(-90 646.01 314.788)" fill="url(#paint16_linear_349_575)"></circle></g><defs><filter id="filter0_f_349_575" x="0.104828" y="0.320648" width="918.404" height="918.403" filterUnits="userSpaceOnUse" color-interpolation-filters="sRGB"><feFlood flood-opacity="0" result="BackgroundImageFix"></feFlood><feBlend mode="normal" in="SourceGraphic" in2="BackgroundImageFix" result="shape"></feBlend><feGaussianBlur stdDeviation="125.208" result="effect1_foregroundBlur_349_575"></feGaussianBlur></filter><filter id="filter1_ii_349_575" x="613.072" y="281.853" width="40.3223" height="40.3213" filterUnits="userSpaceOnUse" color-interpolation-filters="sRGB"><feFlood flood-opacity="0" result="BackgroundImageFix"></feFlood><feBlend mode="normal" in="SourceGraphic" in2="BackgroundImageFix" result="shape"></feBlend><feColorMatrix in="SourceAlpha" type="matrix" values="0 0 0 0 0 0 0 0 0 0 0 0 0 0 0 0 0 0 127 0" result="hardAlpha"></feColorMatrix><feOffset dx="0.998062" dy="0.998062"></feOffset><feGaussianBlur stdDeviation="1.99612"></feGaussianBlur><feComposite in2="hardAlpha" operator="arithmetic" k2="-1" k3="1"></feComposite><feColorMatrix type="matrix" values="0 0 0 0 1 0 0 0 0 1 0 0 0 0 1 0 0 0 1 0"></feColorMatrix><feBlend mode="normal" in2="shape" result="effect1_innerShadow_349_575"></feBlend><feColorMatrix in="SourceAlpha" type="matrix" values="0 0 0 0 0 0 0 0 0 0 0 0 0 0 0 0 0 0 127 0" result="hardAlpha"></feColorMatrix><feOffset dx="-0.998062" dy="-0.998062"></feOffset><feGaussianBlur stdDeviation="1.99612"></feGaussianBlur><feComposite in2="hardAlpha" operator="arithmetic" k2="-1" k3="1"></feComposite><feColorMatrix type="matrix" values="0 0 0 0 1 0 0 0 0 1 0 0 0 0 1 0 0 0 1 0"></feColorMatrix><feBlend mode="normal" in2="effect1_innerShadow_349_575" result="effect2_innerShadow_349_575"></feBlend></filter><filter id="filter2_ii_349_575" x="613.072" y="307.402" width="40.3223" height="40.3213" filterUnits="userSpaceOnUse" color-interpolation-filters="sRGB"><feFlood flood-opacity="0" result="BackgroundImageFix"></feFlood><feBlend mode="normal" in="SourceGraphic" in2="BackgroundImageFix" result="shape"></feBlend><feColorMatrix in="SourceAlpha" type="matrix" values="0 0 0 0 0 0 0 0 0 0 0 0 0 0 0 0 0 0 127 0" result="hardAlpha"></feColorMatrix><feOffset dx="0.998062" dy="0.998062"></feOffset><feGaussianBlur stdDeviation="1.99612"></feGaussianBlur><feComposite in2="hardAlpha" operator="arithmetic" k2="-1" k3="1"></feComposite><feColorMatrix type="matrix" values="0 0 0 0 1 0 0 0 0 1 0 0 0 0 1 0 0 0 1 0"></feColorMatrix><feBlend mode="normal" in2="shape" result="effect1_innerShadow_349_575"></feBlend><feColorMatrix in="SourceAlpha" type="matrix" values="0 0 0 0 0 0 0 0 0 0 0 0 0 0 0 0 0 0 127 0" result="hardAlpha"></feColorMatrix><feOffset dx="-0.998062" dy="-0.998062"></feOffset><feGaussianBlur stdDeviation="1.99612"></feGaussianBlur><feComposite in2="hardAlpha" operator="arithmetic" k2="-1" k3="1"></feComposite><feColorMatrix type="matrix" values="0 0 0 0 1 0 0 0 0 1 0 0 0 0 1 0 0 0 1 0"></feColorMatrix><feBlend mode="normal" in2="effect1_innerShadow_349_575" result="effect2_innerShadow_349_575"></feBlend></filter><filter id="filter3_ii_349_575" x="600.299" y="294.628" width="40.3223" height="40.3213" filterUnits="userSpaceOnUse" color-interpolation-filters="sRGB"><feFlood flood-opacity="0" result="BackgroundImageFix"></feFlood><feBlend mode="normal" in="SourceGraphic" in2="BackgroundImageFix" result="shape"></feBlend><feColorMatrix in="SourceAlpha" type="matrix" values="0 0 0 0 0 0 0 0 0 0 0 0 0 0 0 0 0 0 127 0" result="hardAlpha"></feColorMatrix><feOffset dx="0.998062" dy="0.998062"></feOffset><feGaussianBlur stdDeviation="1.99612"></feGaussianBlur><feComposite in2="hardAlpha" operator="arithmetic" k2="-1" k3="1"></feComposite><feColorMatrix type="matrix" values="0 0 0 0 1 0 0 0 0 1 0 0 0 0 1 0 0 0 1 0"></feColorMatrix><feBlend mode="normal" in2="shape" result="effect1_innerShadow_349_575"></feBlend><feColorMatrix in="SourceAlpha" type="matrix" values="0 0 0 0 0 0 0 0 0 0 0 0 0 0 0 0 0 0 127 0" result="hardAlpha"></feColorMatrix><feOffset dx="-0.998062" dy="-0.998062"></feOffset><feGaussianBlur stdDeviation="1.99612"></feGaussianBlur><feComposite in2="hardAlpha" operator="arithmetic" k2="-1" k3="1"></feComposite><feColorMatrix type="matrix" values="0 0 0 0 1 0 0 0 0 1 0 0 0 0 1 0 0 0 1 0"></feColorMatrix><feBlend mode="normal" in2="effect1_innerShadow_349_575" result="effect2_innerShadow_349_575"></feBlend></filter><filter id="filter4_ii_349_575" x="625.85" y="294.628" width="40.3223" height="40.3213" filterUnits="userSpaceOnUse" color-interpolation-filters="sRGB"><feFlood flood-opacity="0" result="BackgroundImageFix"></feFlood><feBlend mode="normal" in="SourceGraphic" in2="BackgroundImageFix" result="shape"></feBlend><feColorMatrix in="SourceAlpha" type="matrix" values="0 0 0 0 0 0 0 0 0 0 0 0 0 0 0 0 0 0 127 0" result="hardAlpha"></feColorMatrix><feOffset dx="0.998062" dy="0.998062"></feOffset><feGaussianBlur stdDeviation="1.99612"></feGaussianBlur><feComposite in2="hardAlpha" operator="arithmetic" k2="-1" k3="1"></feComposite><feColorMatrix type="matrix" values="0 0 0 0 1 0 0 0 0 1 0 0 0 0 1 0 0 0 1 0"></feColorMatrix><feBlend mode="normal" in2="shape" result="effect1_innerShadow_349_575"></feBlend><feColorMatrix in="SourceAlpha" type="matrix" values="0 0 0 0 0 0 0 0 0 0 0 0 0 0 0 0 0 0 127 0" result="hardAlpha"></feColorMatrix><feOffset dx="-0.998062" dy="-0.998062"></feOffset><feGaussianBlur stdDeviation="1.99612"></feGaussianBlur><feComposite in2="hardAlpha" operator="arithmetic" k2="-1" k3="1"></feComposite><feColorMatrix type="matrix" values="0 0 0 0 1 0 0 0 0 1 0 0 0 0 1 0 0 0 1 0"></feColorMatrix><feBlend mode="normal" in2="effect1_innerShadow_349_575" result="effect2_innerShadow_349_575"></feBlend></filter><radialGradient id="paint0_radial_349_575" cx="0" cy="0" r="1" gradientUnits="userSpaceOnUse" gradientTransform="translate(464.062 484.962) rotate(90) scale(174.404)"><stop stop-color="white"></stop><stop offset="1" stop-color="white" stop-opacity="0"></stop></radialGradient><radialGradient id="paint1_radial_349_575" cx="0" cy="0" r="1" gradientUnits="userSpaceOnUse" gradientTransform="translate(464.064 484.96) rotate(90) scale(209.284)"><stop stop-color="white"></stop><stop offset="1" stop-color="white" stop-opacity="0.54"></stop></radialGradient><radialGradient id="paint2_radial_349_575" cx="0" cy="0" r="1" gradientUnits="userSpaceOnUse" gradientTransform="translate(464.069 481.788) rotate(67.9993) scale(112.861)"><stop stop-color="white"></stop><stop offset="0.739583" stop-color="white" stop-opacity="0.582344"></stop><stop offset="1" stop-color="white" stop-opacity="0.19"></stop></radialGradient><radialGradient id="paint3_radial_349_575" cx="0" cy="0" r="1" gradientUnits="userSpaceOnUse" gradientTransform="translate(464.064 482.583) rotate(67.9993) scale(84.6456)"><stop stop-color="white"></stop><stop offset="0.739583" stop-color="white" stop-opacity="0.582344"></stop><stop offset="1" stop-color="white" stop-opacity="0.19"></stop></radialGradient><linearGradient id="paint4_linear_349_575" x1="297.332" y1="281.852" x2="269.762" y2="312.354" gradientUnits="userSpaceOnUse"><stop stop-color="white"></stop><stop offset="1" stop-color="white" stop-opacity="0"></stop></linearGradient><linearGradient id="paint5_linear_349_575" x1="334.285" y1="300.622" x2="302.61" y2="279.505" gradientUnits="userSpaceOnUse"><stop stop-color="white"></stop><stop offset="1" stop-color="white" stop-opacity="0"></stop></linearGradient><linearGradient id="paint6_linear_349_575" x1="310.237" y1="348.722" x2="337.806" y2="318.22" gradientUnits="userSpaceOnUse"><stop stop-color="white"></stop><stop offset="1" stop-color="white" stop-opacity="0"></stop></linearGradient><linearGradient id="paint7_linear_349_575" x1="273.283" y1="329.951" x2="304.958" y2="351.068" gradientUnits="userSpaceOnUse"><stop stop-color="white"></stop><stop offset="1" stop-color="white" stop-opacity="0"></stop></linearGradient><radialGradient id="paint8_radial_349_575" cx="0" cy="0" r="1" gradientUnits="userSpaceOnUse" gradientTransform="translate(303.784 314.701) rotate(90) scale(32.2619)"><stop stop-color="white"></stop><stop offset="1" stop-color="white" stop-opacity="0"></stop></radialGradient><radialGradient id="paint9_radial_349_575" cx="0" cy="0" r="1" gradientUnits="userSpaceOnUse" gradientTransform="translate(303.785 314.701) rotate(90) scale(38.7143)"><stop stop-color="white"></stop><stop offset="1" stop-color="white" stop-opacity="0.54"></stop></radialGradient><radialGradient id="paint10_radial_349_575" cx="0" cy="0" r="1" gradientUnits="userSpaceOnUse" gradientTransform="translate(303.786 314.114) rotate(67.9993) scale(20.8775)"><stop stop-color="white"></stop><stop offset="0.739583" stop-color="white" stop-opacity="0.582344"></stop><stop offset="1" stop-color="white" stop-opacity="0.19"></stop></radialGradient><radialGradient id="paint11_radial_349_575" cx="0" cy="0" r="1" gradientUnits="userSpaceOnUse" gradientTransform="translate(303.785 314.261) rotate(67.9993) scale(15.6581)"><stop stop-color="white"></stop><stop offset="0.739583" stop-color="white" stop-opacity="0.582344"></stop><stop offset="1" stop-color="white" stop-opacity="0.19"></stop></radialGradient><radialGradient id="paint12_radial_349_575" cx="0" cy="0" r="1" gradientUnits="userSpaceOnUse" gradientTransform="translate(464.561 250.863) rotate(56.4881) scale(53.3279 46.1833)"><stop stop-color="white"></stop><stop offset="1" stop-color="white" stop-opacity="0"></stop></radialGradient><linearGradient id="paint13_linear_349_575" x1="633.233" y1="275.931" x2="633.233" y2="330.225" gradientUnits="userSpaceOnUse"><stop stop-color="white" stop-opacity="0.08"></stop><stop offset="1" stop-color="white" stop-opacity="0"></stop></linearGradient><linearGradient id="paint14_linear_349_575" x1="633.233" y1="301.48" x2="633.233" y2="355.775" gradientUnits="userSpaceOnUse"><stop stop-color="white" stop-opacity="0.08"></stop><stop offset="1" stop-color="white" stop-opacity="0"></stop></linearGradient><linearGradient id="paint15_linear_349_575" x1="620.46" y1="288.706" x2="620.46" y2="343" gradientUnits="userSpaceOnUse"><stop stop-color="white" stop-opacity="0.08"></stop><stop offset="1" stop-color="white" stop-opacity="0"></stop></linearGradient><linearGradient id="paint16_linear_349_575" x1="646.01" y1="288.706" x2="646.01" y2="343" gradientUnits="userSpaceOnUse"><stop stop-color="white" stop-opacity="0.08"></stop><stop offset="1" stop-color="white" stop-opacity="0"></stop></linearGradient></defs></svg> 