<?xml version="1.0" encoding="UTF-8"?> <svg xmlns="http://www.w3.org/2000/svg" width="305" height="253" viewBox="0 0 305 253" fill="none"><g filter="url(#filter0_i_170_340)"><path d="M267.287 61.1578C263.107 44.098 249.603 30.5789 230.311 30.5789C202.016 30.5789 167.934 33.1539 152.5 0C137.067 33.1539 102.984 30.5789 74.6897 30.5789C55.3979 30.5789 41.8935 44.098 37.7136 61.1578C16.8141 62.7672 0.416016 80.4707 0.416016 101.715V151.285C0.416016 172.529 16.8141 189.911 37.7136 191.842C41.8935 208.902 55.3979 222.421 74.6897 222.421C102.984 222.421 137.067 219.846 152.5 253C168.255 219.846 202.016 222.421 230.311 222.421C249.603 222.421 263.107 208.902 267.287 191.842C288.186 190.233 304.585 172.529 304.585 151.285V101.715C304.585 80.4707 287.865 62.7672 267.287 61.1578Z" fill="url(#paint0_radial_170_340)"></path></g><path d="M264.526 61.8342L265.015 63.8315L267.065 63.9918C286.17 65.486 301.742 81.9612 301.742 101.715V151.285C301.742 171.056 286.475 187.513 267.069 189.008L265.016 189.166L264.526 191.166C260.595 207.209 248.048 219.578 230.311 219.578C228.457 219.578 226.567 219.567 224.65 219.555C212.148 219.477 198.479 219.391 186.011 222.521C172.836 225.828 160.842 232.748 152.522 246.888C144.317 232.743 132.313 225.825 119.108 222.52C106.606 219.391 92.8703 219.477 80.3511 219.555C78.4324 219.567 76.5424 219.578 74.6897 219.578C56.9528 219.578 44.4055 207.209 40.4747 191.166L39.9925 189.198L37.9752 189.012C18.4966 187.212 3.25871 171.019 3.25871 151.285V101.715C3.25871 81.944 18.5253 65.4865 37.9319 63.9921L39.9847 63.834L40.4747 61.8342C44.4055 45.7912 56.9528 33.4216 74.6897 33.4216C76.5424 33.4216 78.4325 33.4334 80.3511 33.4453C92.8704 33.5233 106.606 33.6089 119.108 30.4798C132.301 27.1779 144.296 20.269 152.5 6.14886C160.705 20.269 172.699 27.1779 185.892 30.4798C198.395 33.6089 212.13 33.5233 224.649 33.4453C226.568 33.4334 228.458 33.4216 230.311 33.4216C248.048 33.4216 260.595 45.7912 264.526 61.8342Z" stroke="#F2F3FF" stroke-width="5.68539"></path><defs><filter id="filter0_i_170_340" x="0.416016" y="0" width="308.906" height="267.213" filterUnits="userSpaceOnUse" color-interpolation-filters="sRGB"><feFlood flood-opacity="0" result="BackgroundImageFix"></feFlood><feBlend mode="normal" in="SourceGraphic" in2="BackgroundImageFix" result="shape"></feBlend><feColorMatrix in="SourceAlpha" type="matrix" values="0 0 0 0 0 0 0 0 0 0 0 0 0 0 0 0 0 0 127 0" result="hardAlpha"></feColorMatrix><feOffset dx="4.73783" dy="14.2135"></feOffset><feGaussianBlur stdDeviation="11.1813"></feGaussianBlur><feComposite in2="hardAlpha" operator="arithmetic" k2="-1" k3="1"></feComposite><feColorMatrix type="matrix" values="0 0 0 0 0.219375 0 0 0 0 0.222294 0 0 0 0 0.45 0 0 0 0.65 0"></feColorMatrix><feBlend mode="normal" in2="shape" result="effect1_innerShadow_170_340"></feBlend></filter><radialGradient id="paint0_radial_170_340" cx="0" cy="0" r="1" gradientUnits="userSpaceOnUse" gradientTransform="translate(152.5 126.5) rotate(88.6125) scale(136.963 164.664)"><stop stop-color="#838AEC"></stop><stop offset="0.475262" stop-color="#6E76CE"></stop><stop offset="1" stop-color="#59569E"></stop></radialGradient></defs></svg> 
