<?xml version="1.0" encoding="UTF-8"?> <svg xmlns="http://www.w3.org/2000/svg" width="290" height="629" viewBox="0 0 290 629" fill="none"><path d="M5.48629 598.467L5.48629 591.721L5.48629 554.442L5.48629 543.597L5.48627 30.4893C5.48627 25.6721 8.49594 21.368 13.0206 19.7147L50.0531 6.18304C51.3145 5.7221 52.6471 5.48626 53.9901 5.48626L101.58 5.48626L166.511 5.48626L180.453 5.48626L236.196 5.48626C237.545 5.48626 238.883 5.72405 240.149 6.18877L276.995 19.713C281.512 21.3708 284.514 25.6707 284.514 30.4819L284.514 517.163L284.514 554.442L284.514 591.721L284.514 598.451C284.514 603.263 281.511 607.563 276.994 609.221L239.95 622.812C238.684 623.276 237.346 623.514 235.998 623.514L166.511 623.514L101.58 623.514L53.8135 623.514C52.4606 623.514 51.1183 623.274 49.8487 622.807L12.9928 609.232C8.48265 607.57 5.48629 603.274 5.48629 598.467Z" fill="#F8F3ED" stroke="#EEE4D8" stroke-width="10.9726"></path></svg> 