<svg width="115" height="114" viewBox="0 0 115 114" fill="none" xmlns="http://www.w3.org/2000/svg">
<g filter="url(#filter0_f_1_95)">
<path d="M54.8813 26.7706C55.8699 24.5476 59.0251 24.5476 60.0137 26.7706L68.0825 44.915C68.37 45.5615 68.8908 46.0756 69.5409 46.3547L87.8826 54.2275C90.1503 55.2009 90.1503 58.4158 87.8826 59.3891L69.5409 67.262C68.8908 67.541 68.37 68.0551 68.0825 68.7016L60.0137 86.846C59.0251 89.0691 55.8699 89.0691 54.8813 86.846L46.8126 68.7016C46.5251 68.0551 46.0043 67.541 45.3541 67.262L27.0124 59.3891C24.7448 58.4158 24.7448 55.2009 27.0125 54.2275L45.3541 46.3547C46.0043 46.0756 46.5251 45.5615 46.8126 44.915L54.8813 26.7706Z" fill="white"/>
</g>
<path d="M54.8813 26.7706C55.8699 24.5476 59.0251 24.5476 60.0137 26.7706L68.0825 44.915C68.37 45.5615 68.8908 46.0756 69.5409 46.3547L87.8826 54.2275C90.1503 55.2009 90.1503 58.4158 87.8826 59.3891L69.5409 67.262C68.8908 67.541 68.37 68.0551 68.0825 68.7016L60.0137 86.846C59.0251 89.0691 55.8699 89.0691 54.8813 86.846L46.8126 68.7016C46.5251 68.0551 46.0043 67.541 45.3541 67.262L27.0124 59.3891C24.7448 58.4158 24.7448 55.2009 27.0125 54.2275L45.3541 46.3547C46.0043 46.0756 46.5251 45.5615 46.8126 44.915L54.8813 26.7706Z" fill="white"/>
<defs>
<filter id="filter0_f_1_95" x="0.311768" y="0.103333" width="114.272" height="113.41" filterUnits="userSpaceOnUse" color-interpolation-filters="sRGB">
<feFlood flood-opacity="0" result="BackgroundImageFix"/>
<feBlend mode="normal" in="SourceGraphic" in2="BackgroundImageFix" result="shape"/>
<feGaussianBlur stdDeviation="12.5" result="effect1_foregroundBlur_1_95"/>
</filter>
</defs>
</svg>
