<svg width="107" height="115" viewBox="0 0 107 115" fill="none" xmlns="http://www.w3.org/2000/svg">
<g filter="url(#filter0_f_1_102)">
<path d="M54.8813 27.5119C55.8699 25.2888 59.0251 25.2888 60.0137 27.5119L68.0825 45.6562C68.37 46.3027 68.8908 46.8168 69.5409 47.0959L87.8826 54.9687C90.1503 55.9421 90.1503 59.157 87.8826 60.1303L69.5409 68.0032C68.8908 68.2822 68.37 68.7964 68.0825 69.4428L60.0137 87.5872C59.0251 89.8103 55.8699 89.8103 54.8813 87.5872L46.8126 69.4428C46.5251 68.7964 46.0043 68.2822 45.3541 68.0032L27.0124 60.1303C24.7448 59.157 24.7448 55.9421 27.0125 54.9687L45.3541 47.0959C46.0043 46.8168 46.5251 46.3027 46.8126 45.6562L54.8813 27.5119Z" fill="white"/>
</g>
<path d="M54.8813 27.5119C55.8699 25.2888 59.0251 25.2888 60.0137 27.5119L68.0825 45.6562C68.37 46.3027 68.8908 46.8168 69.5409 47.0959L87.8826 54.9687C90.1503 55.9421 90.1503 59.157 87.8826 60.1303L69.5409 68.0032C68.8908 68.2822 68.37 68.7964 68.0825 69.4428L60.0137 87.5872C59.0251 89.8103 55.8699 89.8103 54.8813 87.5872L46.8126 69.4428C46.5251 68.7964 46.0043 68.2822 45.3541 68.0032L27.0124 60.1303C24.7448 59.157 24.7448 55.9421 27.0125 54.9687L45.3541 47.0959C46.0043 46.8168 46.5251 46.3027 46.8126 45.6562L54.8813 27.5119Z" fill="white"/>
<defs>
<filter id="filter0_f_1_102" x="0.311707" y="0.844543" width="114.272" height="113.41" filterUnits="userSpaceOnUse" color-interpolation-filters="sRGB">
<feFlood flood-opacity="0" result="BackgroundImageFix"/>
<feBlend mode="normal" in="SourceGraphic" in2="BackgroundImageFix" result="shape"/>
<feGaussianBlur stdDeviation="12.5" result="effect1_foregroundBlur_1_102"/>
</filter>
</defs>
</svg>
