<svg width="115" height="96" viewBox="0 0 115 96" fill="none" xmlns="http://www.w3.org/2000/svg">
<g filter="url(#filter0_f_1_92)">
<path d="M54.8813 8.77064C55.8699 6.54756 59.0251 6.54756 60.0137 8.77065L68.0825 26.915C68.37 27.5615 68.8908 28.0756 69.5409 28.3547L87.8826 36.2275C90.1503 37.2009 90.1503 40.4158 87.8826 41.3891L69.5409 49.262C68.8908 49.541 68.37 50.0551 68.0825 50.7016L60.0137 68.846C59.0251 71.0691 55.8699 71.0691 54.8813 68.846L46.8126 50.7016C46.5251 50.0551 46.0043 49.541 45.3541 49.262L27.0124 41.3891C24.7448 40.4158 24.7448 37.2009 27.0125 36.2275L45.3541 28.3547C46.0043 28.0756 46.5251 27.5615 46.8126 26.915L54.8813 8.77064Z" fill="white"/>
</g>
<path d="M54.8813 8.77064C55.8699 6.54756 59.0251 6.54756 60.0137 8.77065L68.0825 26.915C68.37 27.5615 68.8908 28.0756 69.5409 28.3547L87.8826 36.2275C90.1503 37.2009 90.1503 40.4158 87.8826 41.3891L69.5409 49.262C68.8908 49.541 68.37 50.0551 68.0825 50.7016L60.0137 68.846C59.0251 71.0691 55.8699 71.0691 54.8813 68.846L46.8126 50.7016C46.5251 50.0551 46.0043 49.541 45.3541 49.262L27.0124 41.3891C24.7448 40.4158 24.7448 37.2009 27.0125 36.2275L45.3541 28.3547C46.0043 28.0756 46.5251 27.5615 46.8126 26.915L54.8813 8.77064Z" fill="white"/>
<defs>
<filter id="filter0_f_1_92" x="0.311768" y="-17.8967" width="114.272" height="113.41" filterUnits="userSpaceOnUse" color-interpolation-filters="sRGB">
<feFlood flood-opacity="0" result="BackgroundImageFix"/>
<feBlend mode="normal" in="SourceGraphic" in2="BackgroundImageFix" result="shape"/>
<feGaussianBlur stdDeviation="12.5" result="effect1_foregroundBlur_1_92"/>
</filter>
</defs>
</svg>
